<svg viewBox="0 0 14.3335 11.334" xmlns="http://www.w3.org/2000/svg" xmlns:xlink="http://www.w3.org/1999/xlink" width="14.333496" height="11.333984" fill="none" customFrame="#000000">
	<path id="Union" d="M14.3333 9.33528L14.3333 2.00195C14.3333 0.897383 13.4379 0.00195312 12.3333 0.00195312L2 0.00196325C0.895429 0.00196433 0 0.897395 0 2.00196L0 9.33528C0 10.4399 0.89543 11.3353 2 11.3353L12.3333 11.3353C13.4379 11.3353 14.3333 10.4399 14.3333 9.33528ZM13 3.50826L13 9.33528C13 9.70347 12.7015 10.0019 12.3333 10.0019L2 10.002C1.63181 10.002 1.33333 9.70347 1.33333 9.33528L1.33333 3.50817L6.04211 6.71014C6.72083 7.17167 7.61263 7.17167 8.29135 6.71014L13 3.50826ZM12.9924 1.90103C12.9438 1.58073 12.6672 1.33529 12.3333 1.33529L2 1.3353C1.66615 1.3353 1.38962 1.58069 1.34094 1.90095L6.79186 5.60757C7.0181 5.76142 7.31537 5.76142 7.54161 5.60757L12.9924 1.90103Z" fill="rgb(255,255,255)" fill-rule="evenodd" />
</svg>
