<svg viewBox="0 0 9.3335 14.7715" xmlns="http://www.w3.org/2000/svg" xmlns:xlink="http://www.w3.org/1999/xlink" width="9.333496" height="14.771484" fill="none" customFrame="#000000">
	<path id="Rectangle (Stroke)" d="M2.33333 1.33138C1.78105 1.33138 1.33333 1.7791 1.33333 2.33138L1.33333 12.4355C1.33333 12.9878 1.78105 13.4355 2.33333 13.4355L7 13.4355C7.55229 13.4355 8 12.9878 8 12.4355L8 2.33138C8 1.7791 7.55229 1.33138 7 1.33138L6.94441 1.33138L6.78203 1.72102C6.67851 1.96943 6.43578 2.13123 6.16667 2.13123L3.16667 2.13123C2.89755 2.13123 2.65482 1.96943 2.5513 1.72102L2.38892 1.33138L2.33333 1.33138ZM0 2.33138C0 1.04272 1.04467 -0.00195312 2.33333 -0.00195312L7 -0.00195312C8.28866 -0.00195312 9.33333 1.04272 9.33333 2.33138L9.33333 12.4355C9.33333 13.7242 8.28866 14.7689 7 14.7689L2.33333 14.7689C1.04467 14.7689 0 13.7242 0 12.4355L0 2.33138Z" fill="rgb(255,255,255)" fill-rule="evenodd" />
</svg>
