<svg viewBox="0 0 17 21.5" xmlns="http://www.w3.org/2000/svg" xmlns:xlink="http://www.w3.org/1999/xlink" width="17.000000" height="21.500000" fill="none" customFrame="#000000">
	<g id="Pin">
		<path id="Vector" d="M7.88069 21.2851C7.88094 21.2853 7.88117 21.2855 8.5 20.5L9.11883 21.2855C8.75583 21.5715 8.24368 21.5711 7.88069 21.2851ZM7.88069 21.2851L8.5 20.5C9.11883 21.2855 9.11971 21.2848 9.11997 21.2846L9.1218 21.2832L9.12749 21.2787L9.14687 21.2632C9.16328 21.25 9.18661 21.2312 9.2164 21.2069C9.27597 21.1583 9.36141 21.0877 9.46903 20.9965C9.68418 20.814 9.98847 20.5486 10.3522 20.2109C11.0784 19.5368 12.0482 18.5687 13.0206 17.3928C14.932 15.0814 17 11.7928 17 8.26923C17 3.67303 13.1647 0 8.5 0C3.83527 0 0 3.67303 0 8.26923C0 11.7928 2.06799 15.0814 3.97936 17.3928C4.95175 18.5687 5.92158 19.5368 6.64779 20.2109C7.01153 20.5486 7.31582 20.814 7.53097 20.9965C7.63859 21.0877 7.72403 21.1583 7.7836 21.2069C7.81339 21.2312 7.83672 21.25 7.85313 21.2632L7.87251 21.2787L7.8782 21.2832L7.88069 21.2851ZM2 8.26923C2 4.83606 4.88046 2 8.5 2C12.1195 2 15 4.83606 15 8.26923C15 11.068 13.318 13.8948 11.4794 16.1182C10.5768 17.2097 9.67158 18.1139 8.99154 18.7451C8.80962 18.914 8.64429 19.0629 8.5 19.1902C8.35571 19.0629 8.19038 18.914 8.00846 18.7451C7.32842 18.1139 6.42325 17.2097 5.52064 16.1182C3.68201 13.8948 2 11.068 2 8.26923ZM4.5 8.5C4.5 6.29086 6.29086 4.5 8.5 4.5C10.7091 4.5 12.5 6.29086 12.5 8.5C12.5 10.7091 10.7091 12.5 8.5 12.5C6.29086 12.5 4.5 10.7091 4.5 8.5ZM8.5 6.5C7.39543 6.5 6.5 7.39543 6.5 8.5C6.5 9.60457 7.39543 10.5 8.5 10.5C9.60457 10.5 10.5 9.60457 10.5 8.5C10.5 7.39543 9.60457 6.5 8.5 6.5Z" fill="rgb(255,63,58)" fill-rule="evenodd" />
	</g>
</svg>
